<svg width="22" height="22" viewBox="0 0 22 22" fill="none" xmlns="http://www.w3.org/2000/svg">
<path d="M18.1327 1.04439L3.99234 0.955972C2.37708 0.945871 1.05449 2.25202 1.04439 3.86728L0.955975 18.0076C0.945874 19.6229 2.25202 20.9455 3.86729 20.9556L9.76561 20.9925L9.80982 13.9223L7.46611 13.9076L7.4881 10.3921L9.8318 10.4067L9.8467 8.02397C9.85882 6.08538 11.4456 4.51827 13.3842 4.53039L16.9389 4.55262L16.9169 8.06818L13.3623 8.04595L13.3474 10.4287L16.902 10.4509L16.2941 13.9628L13.3254 13.9443L13.2812 21.0144L18.0076 21.044C19.6229 21.0541 20.9455 19.748 20.9556 18.1327L21.044 3.99234C21.0541 2.37708 19.748 1.05449 18.1327 1.04439Z" fill="black"/>
</svg>
