<svg width="21" height="20" viewBox="0 0 21 20" fill="none" xmlns="http://www.w3.org/2000/svg">
<path d="M10.5832 0.499865C5.05845 0.451464 0.545409 4.77377 0.498284 10.153C0.460574 14.4575 3.29348 18.1329 7.25456 19.4546C7.75373 19.5507 7.9397 19.2508 7.94197 18.9922C7.94399 18.761 7.94103 18.148 7.94398 17.3359C5.15727 17.8989 4.58722 15.9996 4.58722 15.9996C4.14209 14.8714 3.48725 14.5649 3.48725 14.5649C2.58674 13.9532 3.56243 13.9741 3.56243 13.9741C4.56596 14.0506 5.08524 14.9912 5.08524 14.9912C5.96383 16.4883 7.41671 16.0707 7.99053 15.827C8.08605 15.1975 8.3473 14.7711 8.63525 14.5299C6.41664 14.2668 4.0899 13.4087 4.1226 9.67666C4.13191 8.61354 4.52701 7.74794 5.17462 7.07207C5.06428 6.82492 4.73547 5.83154 5.2847 4.49476C5.2847 4.49476 6.12446 4.24107 8.02585 5.51753C8.82771 5.30812 9.67862 5.20818 10.5286 5.21067C11.3786 5.22307 12.2276 5.3379 13.0257 5.56134C14.9366 4.31827 15.7718 4.58663 15.7718 4.58663C16.2975 5.93283 15.9514 6.9203 15.8492 7.16559C16.4807 7.85266 16.8606 8.72505 16.8513 9.78817C16.8185 13.5301 14.4739 14.3332 12.2469 14.5533C12.5943 14.8488 12.914 15.4489 12.906 16.3616C12.8946 17.6651 12.8729 18.7124 12.8702 19.0288C12.8679 19.2841 13.0403 19.5904 13.5536 19.4974C17.5655 18.2538 20.4599 14.6261 20.4975 10.3282C20.5446 4.94897 16.1055 0.548243 10.5832 0.499865Z" fill="#212121"/>
</svg>
